<?xml version="1.0" encoding="utf-8"?>
<!-- Generator: Adobe Illustrator 23.0.1, SVG Export Plug-In . SVG Version: 6.00 Build 0)  -->
<svg version="1.1" xmlns="http://www.w3.org/2000/svg" xmlns:xlink="http://www.w3.org/1999/xlink" x="0px" y="0px"
	 viewBox="0 0 841.89 595.28" style="enable-background:new 0 0 841.89 595.28;" xml:space="preserve">
<style type="text/css">
	.st0{display:none;}
	.st1{display:inline;}
</style>
<g id="Layer_2" class="st0">
	<path class="st1" d="M409.19,277.65c-0.17,0.09-0.34,0.18-0.52,0.26c-4.91-4.07-9.82-8.17-14.76-12.23
		c-8.19-6.74-16.4-13.46-24.63-20.16c-1.31-1.06-1.73-2.12-1.29-3.86c0.93-3.63,1.53-7.34,2.26-10.97
		c-6.34-0.52-12.29-1.01-18.34-1.51c-3.9,6.22-3.9,6.22-5.91,5.34c0.62-1.45,1.11-2.98,1.9-4.34c1.07-1.85,0.53-2.82-1.29-3.72
		c-3.14-1.54-6.18-3.3-9.26-4.95c-1.14-0.61-2.3-1.21-4.17-2.2c7.41,0,13.79,0,20.18,0c6.41,0,12.82,0.03,19.22-0.03
		c6.26-0.05,12.55,0.22,18.79-0.17c0.01-0.56,0.02-1.11,0.02-1.67c-1.21-0.14-2.42-0.39-3.63-0.4c-18.12-0.07-36.24-0.17-54.36-0.11
		c-3.34,0.01-6.29-0.48-8.94-2.64c-0.77-0.62-1.97-0.71-3.75-1.3c0.69,1.78,1.02,2.63,1.29,3.31c-1.72,0.39-3.41,0.77-5.1,1.15
		c0.04,0.43,0.08,0.87,0.12,1.3c1.5,0.07,3.05,0.4,4.5,0.17c4.26-0.68,6.82,1.34,9.16,4.64c6.85,9.69,12.46,20.04,17.12,30.93
		c0.42,0.99,0.89,1.95,1.35,2.95c3.31-1.34,6.3-2.77,9.44-3.71c1.28-0.38,3.17-0.14,4.29,0.59c3.36,2.16,6.48,4.69,9.69,7.09
		c10.02,7.49,20.05,14.96,30.02,22.52c0.7,0.53,1.42,1.38,1.72,2.21C404.56,282.54,406.59,279.85,409.19,277.65z"/>
	<path class="st1" d="M429.65,276.05c-0.58-0.74-0.96-1.69-0.93-3.07c0.25-13.31,0.09-26.63,0.09-39.95c0-1.27,0-2.54,0-4.03
		c-5.32,0-10.37,0-15.62,0c-0.05,1.03-0.12,1.91-0.12,2.78c0,12.82-0.21,25.64,0.14,38.44c0.07,2.45-0.44,4.22-1.62,5.58
		C417.06,272.7,423.76,273.19,429.65,276.05z"/>
	<path class="st1" d="M376.26,196.11c-1.11,0.01-2.22,0.36-3.33,0.56c0.04,0.51,0.08,1.02,0.12,1.53
		c10.03,0.4,20.09,0.15,30.41,0.33c0.3-0.69,0.49-1.6,0.72-2.44C395.25,196.08,385.76,196.06,376.26,196.11z"/>
	<path class="st1" d="M423.3,175.2c-0.6-0.87-1.37-1.62-2.68-3.15c-5.61,8.21-10.91,15.96-16.42,24.03c-0.01,0-0.02,0-0.03,0
		c-0.23,0.84-0.42,1.75-0.72,2.44c0.02,0,0.04,0,0.06,0c-1.78,4.94-3.47,9.6-5.17,14.32c0.58,0.4,0.94,0.79,1.38,0.93
		c5.83,1.87,10.22,5.31,12.66,11.1c0.26,0.61,1.6,1.05,2.45,1.07c3.8,0.09,7.61-0.11,11.4,0.02c1.87,0.06,2.88-0.52,3.67-2.23
		c2.07-4.49,5.57-7.63,10.23-9.15c2.71-0.88,3.14-2.09,2.15-4.57c-1.29-3.23-2.4-6.55-3.64-10.11c-0.73-1.82-1.45-3.63-2.18-5.45
		C432,188.09,427.69,181.62,423.3,175.2z M420.62,206.34c-2.46-0.03-4.31-1.89-4.35-4.39c-0.04-2.72,2.03-5.02,4.51-5
		c2.52,0.02,4.82,2.32,4.81,4.81C425.58,204.26,423.29,206.37,420.62,206.34z"/>
	<path class="st1" d="M485.48,196.12c-15.22-0.09-30.43-0.06-45.65-0.13c-0.98,0-2.42-0.2-2.87-0.84c-0.16-0.23-0.32-0.47-0.49-0.7
		c0.73,1.82,1.45,3.63,2.18,5.45c-0.18-0.51-0.35-1.01-0.53-1.53c1.37,0,2.34,0,3.31,0c14.72,0.01,29.43,0.04,44.15-0.03
		c1.17-0.01,2.34-0.78,3.52-1.2C487.89,196.79,486.69,196.13,485.48,196.12z"/>
	<path class="st1" d="M521.71,369.73c-0.4-0.86-1.32-1.47-2.02-2.19c-2.41-2.46-4.46-5.01-4.75-8.73c-0.55-6.93-5.56-9.83-12.08-7.4
		c-0.93,0.35-2.55,0.09-3.31-0.54c-15.4-12.94-30.73-25.97-46.05-39c-5.35-4.55-10.68-9.15-16.64-14.26
		c-1.41,3.29-3.71,5.25-6.29,7.12c0.82-0.03,1.71,0.16,2.24,0.55c21.39,16.02,42.71,32.13,64.06,48.2c1.21,0.91,1.77,1.62,1.37,3.39
		c-1.47,6.48,2.88,11.68,9.42,10.74c3.84-0.55,6.57,0.51,9.24,2.81c0.76,0.65,1.51,1.4,2.41,1.77c0.67,0.28,1.95,0.34,2.25-0.05
		C521.97,371.58,522.02,370.39,521.71,369.73z"/>
	<path class="st1" d="M507.28,241.29c-0.68-0.8-2.53-0.65-3.87-0.82c-0.33-0.04-0.72,0.32-1.07,0.51
		c-21.95,12.2-43.88,24.41-65.85,36.57c-0.8,0.44-1.97,0.98-2.82,1.06c1.94,1.77,3.19,3.93,3.89,6.25c0.37-0.79,1.07-1.38,2.13-1.98
		c14.31-8.03,28.56-16.16,42.82-24.29c7.82-4.46,15.62-8.97,23.44-13.42C507.61,244.22,508.5,242.73,507.28,241.29z"/>
	<path class="st1" d="M392.17,378.33c-1.14-4.23-0.73-5.09,2.98-6.74c0.3-3.55,1.53-5.33,3.97-5.27c2.98,0.08,4.26,1.98,4.9,4.75
		c0.27,1.18,1.28,2.51,2.33,3.12c4.4,2.58,8.91,4.96,13.45,7.28c0.73,0.37,1.95,0.42,2.67,0.07c4.3-2.12,8.59-4.29,12.72-6.71
		c1.06-0.62,1.58-2.17,2.3-3.32c0.2-0.32,0.18-0.77,0.29-1.16c0.81-2.74,2.78-4.2,5.29-3.87c2.97,0.4,3.61,2.44,3.38,4.99
		c4.31,1.85,4.41,2.08,3.13,7.51c19.1,0,38.07,0,57.04,0.02c0.13,0,0.26,0.27,0.99,1.09c-1.64,0.36-2.88,0.86-4.12,0.87
		c-17.51,0.05-35.03,0.1-52.54,0c-3.69-0.02-7.49,1.87-11.11-0.53c-0.35-0.23-1.18,0.09-1.71,0.34c-3.25,1.53-6.47,3.11-10.17,4.9
		c4.21,2.04,7.94,3.92,11.75,5.6c0.59,0.26,1.67-0.24,2.36-0.66c2.31-1.38,4.57-1.39,6.79,0.05c3.43,2.22,3.44,5.9-0.11,7.92
		c-1.57,0.89-2.45,1.86-3.15,3.58c-0.48,1.18-2.45,2.36-3.82,2.44c-2.35,0.15-4.21-1.78-4.16-3.92c0.06-2.94-1.82-3.75-3.69-4.78
		c-3.86-2.11-7.74-4.18-11.7-6.11c-0.83-0.41-2.2-0.46-3.01-0.05c-4.37,2.2-8.72,4.48-12.91,7c-1.04,0.63-1.88,2.19-2.1,3.45
		c-0.44,2.51-1.73,4.18-4.06,4.63c-2.41,0.47-3.49-1.32-4.26-3.35c-0.28-0.74-0.93-1.46-1.59-1.92c-3.14-2.18-3.89-4.08-2.49-6.71
		c1.35-2.55,4.9-3.96,7.49-2.42c2.22,1.31,3.8,0.81,5.72-0.34c2.64-1.58,5.43-2.92,8.62-4.6c-3.7-1.86-7.1-3.64-10.59-5.25
		c-0.51-0.24-1.41,0.4-2.14,0.57c-1.42,0.34-2.85,0.92-4.26,0.89c-3.56-0.07-7.12-0.49-10.68-0.63c-3.4-0.13-6.81-0.01-10.2-0.14
		c-0.72-0.03-1.4-0.7-2.11-1.07c0.69-0.39,1.37-1.1,2.07-1.12c4.3-0.11,8.61-0.05,12.91-0.09
		C389.73,378.64,390.81,378.46,392.17,378.33z"/>
	<path class="st1" d="M426.34,366.33c-2,1.82,0.59,4.82-2.58,5.11c-3.5,0.33-0.95-3.33-3.2-4.68c-0.42,1.53-0.8,2.91-1.25,4.55
		c-0.69,0.06-1.53,0.12-2.59,0.21c-0.19-1.7-0.36-3.21-0.53-4.72c-0.36-0.06-0.73-0.12-1.09-0.19c-0.28,1.31-0.55,2.62-0.83,3.94
		c-2.51,0.17-2.93,0.07-2.73-2.27c0.29-3.31-1.12-4.69-4.1-5.67c-3.93-1.29-4.01-2.01-2.83-5.89c0.26-0.86,0.21-2.01-0.14-2.84
		c-4-9.35,0.72-18.03,6.18-21.86c7.04-4.94,16.59-4.31,22.98,1.52c5.42,4.94,6.94,12,4.42,19.23c-0.54,1.56-0.55,3.43-0.33,5.09
		c0.35,2.7-0.69,4.55-4.13,5.08c-2.7,0.41-3.33,1.68-3.01,4.03c0.09,0.69,0.32,1.55,0.02,2.06c-0.45,0.76-1.31,1.27-2,1.89
		c-0.47-0.62-1.05-1.18-1.38-1.86C426.83,368.32,426.68,367.46,426.34,366.33z M424.26,352.8c-0.06,2.23,2.06,4.61,4.29,4.63
		c2.35,0.03,3.42-1.38,3.52-3.6c0.11-2.47-1.79-4.75-3.98-4.84C426.06,348.9,424.32,350.64,424.26,352.8z M417.41,353.19
		c-0.06-2.13-2.01-4.1-4-4.06c-2.07,0.04-3.78,2.15-3.73,4.6c0.05,2.24,1.62,3.72,3.84,3.61
		C415.63,357.24,417.47,355.29,417.41,353.19z M421.24,356.58c-2.39,1.27-3.46,2.98-2.24,5.19c0.29,0.53,2.76,0.66,3.29,0.09
		C424.02,360.01,422.74,358.29,421.24,356.58z"/>
</g>
<g id="Hores">
	<g id="_x31_2" class="st0">
		<path class="st1" d="M429.65,276.05c-0.58-0.74-0.96-1.69-0.93-3.07c0.25-13.31,0.09-26.63,0.09-39.95c0-1.27,0-2.54,0-4.03
			c-5.32,0-10.37,0-15.62,0c-0.05,1.03-0.12,1.91-0.12,2.78c0,12.82-0.21,25.64,0.14,38.44c0.07,2.45-0.44,4.22-1.62,5.58
			C417.06,272.7,423.76,273.19,429.65,276.05z"/>
		<path class="st1" d="M423.3,175.2c-0.6-0.87-1.37-1.62-2.68-3.15c-5.61,8.21-10.91,15.96-16.42,24.03c-0.01,0-0.02,0-0.03,0
			c-0.23,0.84-0.42,1.75-0.72,2.44c0.02,0,0.04,0,0.06,0c-1.78,4.94-3.47,9.6-5.17,14.32c0.58,0.4,0.94,0.79,1.38,0.93
			c5.83,1.87,10.22,5.31,12.66,11.1c0.26,0.61,1.6,1.05,2.45,1.07c3.8,0.09,7.61-0.11,11.4,0.02c1.87,0.06,2.88-0.52,3.67-2.23
			c2.07-4.49,5.57-7.63,10.23-9.15c2.71-0.88,3.14-2.09,2.15-4.57c-1.29-3.23-2.4-6.55-3.64-10.11c-0.73-1.82-1.45-3.63-2.18-5.45
			C432,188.09,427.69,181.62,423.3,175.2z M420.62,206.34c-2.46-0.03-4.31-1.89-4.35-4.39c-0.04-2.72,2.03-5.02,4.51-5
			c2.52,0.02,4.82,2.32,4.81,4.81C425.58,204.26,423.29,206.37,420.62,206.34z"/>
	</g>
	<g id="_x31_1">
		<path d="M421.02,273.23c-0.87-0.35-1.67-0.99-2.34-2.19c-6.43-11.66-13.21-23.13-19.85-34.66c-0.63-1.1-1.27-2.2-2.01-3.5
			c-4.61,2.65-8.99,5.17-13.54,7.79c0.47,0.91,0.85,1.71,1.29,2.47c6.39,11.11,12.61,22.32,19.3,33.25
			c1.28,2.09,1.72,3.87,1.38,5.64C408.44,276.61,414.48,273.69,421.02,273.23z"/>
		<path d="M365.21,189c-0.95-0.46-2-0.72-3.89-1.39c-0.77,9.91-1.49,19.27-2.24,29.01c-0.01,0-0.01,0.01-0.02,0.01
			c0.22,0.84,0.51,1.73,0.59,2.48c0.02-0.01,0.03-0.02,0.05-0.03c0.92,5.17,1.78,10.05,2.66,15c0.71,0.06,1.21,0.21,1.66,0.11
			c5.98-1.28,11.51-0.49,16.51,3.31c0.53,0.4,1.91,0.11,2.66-0.3c3.34-1.82,6.54-3.89,9.89-5.67c1.65-0.88,2.23-1.89,2.06-3.77
			c-0.45-4.92,1.02-9.39,4.3-13.03c1.91-2.12,1.68-3.38-0.42-5.03c-2.73-2.15-5.34-4.48-8.2-6.95c-1.54-1.21-3.07-2.42-4.61-3.64
			C379.18,195.82,372.21,192.37,365.21,189z M378.42,217.31c-2.15,1.2-4.68,0.51-5.96-1.63c-1.4-2.34-0.75-5.36,1.42-6.58
			c2.2-1.24,5.33-0.4,6.57,1.77C381.68,213.04,380.74,216.01,378.42,217.31z"/>
	</g>
	<g id="_x31_0" class="st0">
		<path class="st1" d="M413.17,276.01c-0.93,0.13-1.94-0.02-3.12-0.73c-11.4-6.88-23.01-13.41-34.54-20.07
			c-1.1-0.64-2.2-1.27-3.49-2.02c-2.66,4.6-5.19,8.97-7.82,13.52c0.87,0.55,1.59,1.06,2.35,1.5c11.09,6.42,22.09,13.02,33.35,19.13
			c2.15,1.17,3.43,2.49,4.02,4.19C403.97,285.23,407.73,279.68,413.17,276.01z"/>
		<path class="st1" d="M322.68,231.02c-1.05,0.08-2.09,0.37-4.06,0.74c4.3,8.97,8.35,17.43,12.58,26.24c0,0.01-0.01,0.01-0.01,0.02
			c0.61,0.62,1.31,1.24,1.75,1.85c0.01-0.02,0.02-0.03,0.03-0.05c3.38,4.02,6.57,7.81,9.81,11.65c0.64-0.31,1.15-0.42,1.5-0.73
			c4.54-4.11,9.71-6.18,15.94-5.4c0.66,0.08,1.71-0.86,2.15-1.59c1.98-3.24,3.71-6.64,5.72-9.86c0.99-1.58,0.99-2.75-0.1-4.29
			c-2.85-4.04-3.81-8.64-2.8-13.43c0.59-2.79-0.24-3.76-2.88-4.15c-3.44-0.5-6.87-1.2-10.57-1.91c-1.94-0.28-3.87-0.56-5.81-0.84
			C338.2,229.93,330.44,230.43,322.68,231.02z M348.3,248.92c-1.26,2.12-3.8,2.78-5.98,1.57c-2.38-1.33-3.33-4.27-2.07-6.41
			c1.28-2.18,4.42-3.01,6.57-1.75C348.98,243.59,349.66,246.64,348.3,248.92z"/>
	</g>
	<g id="_x39_" class="st0">
		<path class="st1" d="M407.07,281.27c-0.74,0.58-1.69,0.95-3.07,0.93c-13.31-0.27-26.63-0.13-39.95-0.14c-1.27,0-2.54,0-4.03-0.01
			c-0.01,5.32-0.01,10.37-0.02,15.62c1.03,0.05,1.91,0.12,2.78,0.12c12.82,0.02,25.64,0.24,38.44-0.08
			c2.45-0.06,4.22,0.44,5.58,1.62C403.7,293.85,404.19,287.16,407.07,281.27z"/>
		<path class="st1" d="M306.21,287.48c-0.87,0.6-1.63,1.37-3.15,2.67c8.2,5.62,15.94,10.93,24,16.45c0,0.01,0,0.02,0,0.03
			c0.84,0.23,1.75,0.42,2.44,0.72c0-0.02,0-0.04,0-0.06c4.93,1.79,9.59,3.48,14.32,5.19c0.4-0.58,0.79-0.94,0.93-1.38
			c1.88-5.82,5.33-10.21,11.12-12.64c0.61-0.26,1.05-1.6,1.07-2.45c0.09-3.8-0.1-7.61,0.03-11.4c0.07-1.86-0.52-2.88-2.23-3.67
			c-4.49-2.07-7.62-5.58-9.13-10.24c-0.88-2.71-2.09-3.14-4.57-2.16c-3.23,1.28-6.55,2.39-10.12,3.62
			c-1.82,0.72-3.64,1.45-5.46,2.17C319.1,278.79,312.63,283.1,306.21,287.48z M337.34,290.2c-0.03,2.46-1.9,4.31-4.39,4.34
			c-2.72,0.04-5.01-2.03-4.99-4.52c0.02-2.52,2.32-4.82,4.82-4.8C335.27,285.24,337.37,287.54,337.34,290.2z"/>
	</g>
	<g id="_x38_" class="st0">
		<path class="st1" d="M403.24,289.2c-0.35,0.87-0.99,1.67-2.19,2.34c-11.66,6.43-23.13,13.21-34.66,19.85
			c-1.1,0.63-2.2,1.27-3.5,2.01c2.65,4.61,5.17,8.99,7.79,13.54c0.91-0.47,1.71-0.85,2.47-1.29c11.11-6.39,22.32-12.61,33.25-19.3
			c2.09-1.28,3.87-1.72,5.64-1.38C406.62,301.78,403.7,295.74,403.24,289.2z"/>
		<path class="st1" d="M319,345.02c-0.46,0.95-0.72,2-1.39,3.89c9.91,0.77,19.27,1.49,29.01,2.24c0,0.01,0.01,0.01,0.01,0.02
			c0.84-0.22,1.73-0.51,2.48-0.59c-0.01-0.02-0.02-0.03-0.03-0.05c5.17-0.92,10.05-1.78,15-2.66c0.06-0.71,0.21-1.21,0.11-1.66
			c-1.28-5.98-0.49-11.51,3.31-16.51c0.4-0.53,0.11-1.91-0.3-2.66c-1.82-3.34-3.89-6.54-5.67-9.89c-0.88-1.65-1.89-2.23-3.77-2.06
			c-4.92,0.45-9.39-1.02-13.03-4.3c-2.12-1.91-3.38-1.68-5.03,0.42c-2.15,2.73-4.48,5.34-6.95,8.2c-1.21,1.54-2.42,3.07-3.64,4.61
			C325.83,331.05,322.38,338.01,319,345.02z M347.32,331.81c1.2,2.15,0.51,4.68-1.63,5.96c-2.34,1.4-5.36,0.75-6.58-1.42
			c-1.24-2.2-0.4-5.33,1.77-6.57C343.05,328.55,346.02,329.48,347.32,331.81z"/>
	</g>
	<g id="_x37_" class="st0">
		<path class="st1" d="M406.02,297.06c0.13,0.93-0.02,1.94-0.73,3.12c-6.88,11.4-13.41,23.01-20.07,34.54
			c-0.64,1.1-1.27,2.2-2.02,3.49c4.6,2.66,8.97,5.19,13.52,7.82c0.55-0.87,1.06-1.59,1.5-2.35c6.42-11.09,13.02-22.09,19.13-33.35
			c1.17-2.15,2.49-3.43,4.19-4.02C415.24,306.26,409.69,302.49,406.02,297.06z"/>
		<path class="st1" d="M361.03,387.54c0.08,1.05,0.37,2.09,0.74,4.06c8.97-4.3,17.43-8.35,26.24-12.58c0.01,0,0.01,0.01,0.02,0.01
			c0.62-0.61,1.24-1.31,1.85-1.75c-0.02-0.01-0.03-0.02-0.05-0.03c4.02-3.38,7.81-6.57,11.65-9.81c-0.31-0.64-0.42-1.15-0.73-1.5
			c-4.11-4.54-6.18-9.71-5.4-15.94c0.08-0.66-0.86-1.71-1.59-2.15c-3.24-1.98-6.64-3.71-9.86-5.72c-1.58-0.99-2.75-0.99-4.29,0.1
			c-4.04,2.85-8.64,3.81-13.43,2.8c-2.79-0.59-3.76,0.24-4.15,2.88c-0.5,3.44-1.2,6.87-1.91,10.57c-0.28,1.94-0.56,3.87-0.84,5.81
			C359.94,372.03,360.44,379.79,361.03,387.54z M378.93,361.93c2.12,1.26,2.78,3.8,1.57,5.98c-1.33,2.38-4.27,3.33-6.41,2.07
			c-2.18-1.28-3.01-4.42-1.75-6.57C373.6,361.25,376.64,360.57,378.93,361.93z"/>
	</g>
	<g id="_x36_" class="st0">
		<path class="st1" d="M411.28,303.16c0.58,0.74,0.95,1.69,0.93,3.07c-0.27,13.31-0.13,26.63-0.14,39.95c0,1.27,0,2.54-0.01,4.03
			c5.32,0.01,10.37,0.01,15.62,0.02c0.05-1.03,0.12-1.91,0.12-2.78c0.02-12.82,0.24-25.64-0.08-38.44
			c-0.06-2.45,0.44-4.22,1.62-5.58C423.86,306.52,417.17,306.03,411.28,303.16z"/>
		<path class="st1" d="M417.49,404.02c0.6,0.87,1.37,1.63,2.67,3.15c5.62-8.2,10.93-15.94,16.45-24c0.01,0,0.02,0,0.03,0
			c0.23-0.84,0.42-1.75,0.72-2.44c-0.02,0-0.04,0-0.06,0c1.79-4.93,3.48-9.59,5.19-14.32c-0.58-0.4-0.94-0.79-1.38-0.93
			c-5.82-1.88-10.21-5.33-12.64-11.12c-0.26-0.61-1.6-1.05-2.45-1.07c-3.8-0.09-7.61,0.1-11.4-0.03c-1.86-0.07-2.88,0.52-3.67,2.23
			c-2.07,4.49-5.58,7.62-10.24,9.13c-2.71,0.88-3.14,2.09-2.16,4.57c1.28,3.23,2.39,6.55,3.62,10.12c0.72,1.82,1.45,3.64,2.17,5.46
			C408.8,391.12,413.11,397.59,417.49,404.02z M420.21,372.89c2.46,0.03,4.31,1.9,4.34,4.39c0.04,2.72-2.03,5.01-4.52,4.99
			c-2.52-0.02-4.82-2.32-4.8-4.82C415.25,374.96,417.55,372.85,420.21,372.89z"/>
	</g>
	<g id="_x35_" class="st0">
		<path class="st1" d="M437.07,297.06c-0.13,0.93,0.02,1.94,0.73,3.12c6.88,11.4,13.41,23.01,20.07,34.54
			c0.64,1.1,1.27,2.2,2.02,3.49c-4.6,2.66-8.97,5.19-13.52,7.82c-0.55-0.87-1.06-1.59-1.5-2.35c-6.42-11.09-13.02-22.09-19.13-33.35
			c-1.17-2.15-2.49-3.43-4.19-4.02C427.85,306.26,433.4,302.49,437.07,297.06z"/>
		<path class="st1" d="M483.83,364.29c-0.28-1.94-0.56-3.87-0.84-5.81c-0.71-3.71-1.41-7.13-1.91-10.57
			c-0.38-2.64-1.36-3.47-4.15-2.88c-4.79,1.02-9.39,0.05-13.43-2.8c-1.54-1.09-2.71-1.09-4.29-0.1c-3.22,2.01-6.62,3.74-9.86,5.72
			c-0.73,0.44-1.67,1.5-1.59,2.15c0.79,6.23-1.29,11.41-5.4,15.94c-0.31,0.34-0.43,0.86-0.73,1.5c3.84,3.24,7.63,6.43,11.65,9.81
			c-0.02,0.01-0.03,0.02-0.05,0.03c0.61,0.45,1.23,1.14,1.85,1.75c0.01,0,0.01-0.01,0.02-0.01c8.81,4.22,17.27,8.28,26.24,12.58
			c0.37-1.97,0.66-3.01,0.74-4.06C482.65,379.79,483.15,372.03,483.83,364.29z M470.75,363.4c1.26,2.15,0.42,5.29-1.75,6.57
			c-2.14,1.26-5.08,0.31-6.41-2.07c-1.21-2.18-0.55-4.72,1.57-5.98C466.45,360.57,469.49,361.25,470.75,363.4z"/>
	</g>
	<g id="_x34_" class="st0">
		<path class="st1" d="M439.85,289.2c0.35,0.87,0.99,1.67,2.19,2.34c11.66,6.43,23.13,13.21,34.66,19.85c1.1,0.63,2.2,1.27,3.5,2.01
			c-2.65,4.61-5.17,8.99-7.79,13.54c-0.91-0.47-1.71-0.85-2.47-1.29c-11.11-6.39-22.32-12.61-33.25-19.3
			c-2.09-1.28-3.87-1.72-5.64-1.38C436.48,301.78,439.4,295.74,439.85,289.2z"/>
		<path class="st1" d="M513.98,324c-1.21-1.54-2.42-3.07-3.64-4.61c-2.47-2.85-4.79-5.47-6.95-8.2c-1.65-2.09-2.91-2.33-5.03-0.42
			c-3.64,3.28-8.11,4.75-13.03,4.3c-1.88-0.17-2.89,0.42-3.77,2.06c-1.78,3.35-3.86,6.55-5.67,9.89c-0.41,0.75-0.7,2.13-0.3,2.66
			c3.8,5,4.59,10.52,3.31,16.51c-0.1,0.45,0.06,0.96,0.11,1.66c4.95,0.88,9.83,1.74,15,2.66c-0.01,0.02-0.02,0.03-0.03,0.05
			c0.75,0.08,1.64,0.37,2.48,0.59c0-0.01,0.01-0.01,0.01-0.02c9.74-0.75,19.1-1.48,29.01-2.24c-0.67-1.89-0.93-2.94-1.39-3.89
			C520.72,338.01,517.27,331.05,513.98,324z M502.21,329.78c2.17,1.23,3.02,4.37,1.77,6.57c-1.22,2.16-4.25,2.81-6.58,1.42
			c-2.14-1.28-2.84-3.81-1.63-5.96C497.07,329.48,500.04,328.55,502.21,329.78z"/>
	</g>
	<g id="_x33_" class="st0">
		<path class="st1" d="M436.02,281.27c0.74,0.58,1.69,0.95,3.07,0.93c13.31-0.27,26.63-0.13,39.95-0.14c1.27,0,2.54,0,4.03-0.01
			c0.01,5.32,0.01,10.37,0.02,15.62c-1.03,0.05-1.91,0.12-2.78,0.12c-12.82,0.02-25.64,0.24-38.44-0.08
			c-2.45-0.06-4.22,0.44-5.58,1.62C439.39,293.85,438.9,287.16,436.02,281.27z"/>
		<path class="st1" d="M517.62,274.34c-1.82-0.72-3.64-1.45-5.46-2.17c-3.56-1.24-6.89-2.34-10.12-3.62
			c-2.48-0.99-3.69-0.56-4.57,2.16c-1.51,4.66-4.64,8.17-9.13,10.24c-1.71,0.79-2.29,1.81-2.23,3.67c0.13,3.8-0.06,7.6,0.03,11.4
			c0.02,0.85,0.46,2.2,1.07,2.45c5.79,2.43,9.24,6.82,11.12,12.64c0.14,0.44,0.53,0.8,0.93,1.38c4.72-1.71,9.38-3.4,14.32-5.19
			c0,0.02,0,0.04,0,0.06c0.69-0.3,1.6-0.5,2.44-0.72c0-0.01,0-0.02,0-0.03c8.06-5.52,15.8-10.83,24-16.45
			c-1.53-1.3-2.28-2.08-3.15-2.67C530.46,283.1,523.99,278.79,517.62,274.34z M510.32,285.23c2.49-0.02,4.8,2.28,4.82,4.8
			c0.02,2.48-2.27,4.56-4.99,4.52c-2.5-0.04-4.36-1.88-4.39-4.34C505.72,287.54,507.82,285.24,510.32,285.23z"/>
	</g>
	<g id="_x32_" class="st0">
		<path class="st1" d="M429.92,276.01c0.93,0.13,1.94-0.02,3.12-0.73c11.4-6.88,23.01-13.41,34.54-20.07
			c1.1-0.64,2.2-1.27,3.49-2.02c2.66,4.6,5.19,8.97,7.82,13.52c-0.87,0.55-1.59,1.06-2.35,1.5c-11.09,6.42-22.09,13.02-33.35,19.13
			c-2.15,1.17-3.43,2.49-4.02,4.19C439.13,285.23,435.36,279.68,429.92,276.01z"/>
		<path class="st1" d="M497.15,229.26c-1.94,0.28-3.87,0.56-5.81,0.84c-3.71,0.71-7.13,1.41-10.57,1.91
			c-2.64,0.38-3.47,1.36-2.88,4.15c1.02,4.79,0.05,9.39-2.8,13.43c-1.09,1.54-1.09,2.71-0.1,4.29c2.01,3.22,3.74,6.62,5.72,9.86
			c0.44,0.73,1.5,1.67,2.15,1.59c6.23-0.79,11.41,1.29,15.94,5.4c0.34,0.31,0.86,0.43,1.5,0.73c3.24-3.84,6.43-7.63,9.81-11.65
			c0.01,0.02,0.02,0.03,0.03,0.05c0.45-0.61,1.14-1.23,1.75-1.85c0-0.01-0.01-0.01-0.01-0.02c4.22-8.81,8.28-17.27,12.58-26.24
			c-1.97-0.37-3.01-0.66-4.06-0.74C512.65,230.43,504.9,229.93,497.15,229.26z M496.27,242.33c2.15-1.26,5.29-0.42,6.57,1.75
			c1.26,2.14,0.31,5.08-2.07,6.41c-2.18,1.21-4.72,0.55-5.98-1.57C493.43,246.64,494.11,243.59,496.27,242.33z"/>
	</g>
	<g id="_x31_" class="st0">
		<path class="st1" d="M422.07,273.23c0.87-0.35,1.67-0.99,2.34-2.19c6.43-11.66,13.21-23.13,19.85-34.66
			c0.63-1.1,1.27-2.2,2.01-3.5c4.61,2.65,8.99,5.17,13.54,7.79c-0.47,0.91-0.85,1.71-1.29,2.47c-6.39,11.11-12.61,22.32-19.3,33.25
			c-1.28,2.09-1.72,3.87-1.38,5.64C434.65,276.61,428.61,273.69,422.07,273.23z"/>
		<path class="st1" d="M456.87,199.11c-1.54,1.21-3.07,2.42-4.61,3.64c-2.85,2.47-5.47,4.79-8.2,6.95
			c-2.09,1.65-2.33,2.91-0.42,5.03c3.28,3.64,4.75,8.11,4.3,13.03c-0.17,1.88,0.42,2.89,2.06,3.77c3.35,1.78,6.55,3.86,9.89,5.67
			c0.75,0.41,2.13,0.7,2.66,0.3c5-3.8,10.52-4.59,16.51-3.31c0.45,0.1,0.96-0.06,1.66-0.11c0.88-4.95,1.74-9.83,2.66-15
			c0.02,0.01,0.03,0.02,0.05,0.03c0.08-0.75,0.37-1.64,0.59-2.48c-0.01,0-0.01-0.01-0.02-0.01c-0.75-9.74-1.48-19.1-2.24-29.01
			c-1.89,0.67-2.94,0.93-3.89,1.39C470.88,192.37,463.91,195.82,456.87,199.11z M462.65,210.87c1.23-2.17,4.37-3.02,6.57-1.77
			c2.16,1.22,2.81,4.25,1.42,6.58c-1.28,2.14-3.81,2.84-5.96,1.63C462.35,216.01,461.41,213.04,462.65,210.87z"/>
	</g>
</g>
<g id="Layer_1">
	<path d="M648.06,237.29c-1.29-6.09-1.23-6.1-7.59-5.25c-0.59,0.08-1.2,0.13-1.8,0.15c-2.49,0.09-3.34,1.23-2.73,3.72
		c0.95,3.89,1.7,7.82,2.57,11.72c0.55,2.45,0.12,5.2,2.37,7.19c0.33,0.29-0.32,1.69-0.52,2.57c-0.88-0.21-2.21-0.15-2.56-0.7
		c-0.72-1.13-1.1-2.56-1.3-3.92c-4.33-28.53-14.64-54.79-29.91-79.18c-1.14-1.83-2.61-3.45-4.07-5.34c-2.68,1.94-4.97,3.71-7.4,5.27
		c-0.54,0.35-1.52-0.01-2.3-0.04c0.18-0.69,0.17-1.54,0.58-2.05c0.62-0.76,1.52-1.28,2.32-1.88c1.71-1.32,3.44-2.62,5.4-4.12
		c-3.04-3.97-5.79-7.64-8.62-11.25c-27.95-35.76-63.18-61.26-106.38-75.56c-0.95-0.31-1.61-1.5-2.4-2.28
		c1.06-0.12,2.27-0.64,3.15-0.3c8.13,3.09,16.36,5.98,24.27,9.58c32.68,14.9,59.78,36.95,82.14,64.96c0.92,1.15,1.88,2.27,2.85,3.43
		c2.39-1.79,4.48-3.51,6.72-5c2.36-1.57,2.45-2.91,0.64-5.2c-14.81-18.77-32.02-34.98-51.53-48.75
		c-27.42-19.35-57.73-31.85-90.74-37.72c-7.48-1.33-15.06-2.09-22.62-2.93c-3.96-0.44-4.33,0.06-4.41,3.93
		c-0.03,1.4,0.06,2.81-0.07,4.2c-0.23,2.58,0.66,3.9,3.46,3.99c2.99,0.1,5.99,0.47,8.95,0.93c2.15,0.33,3.72-0.04,5.24-1.81
		c1.85-2.16,2.91-1.92,4.4,0.21c-0.96,0.57-1.93,1.15-2.9,1.72c0.06,0.27,0.13,0.54,0.19,0.8c1.22,0.27,2.44,0.57,3.67,0.8
		c3.64,0.66,7.31,1.18,10.92,2.01c0.96,0.22,1.7,1.35,2.55,2.06c-0.21,0.31-0.43,0.61-0.64,0.92c-1.06-0.15-2.13-0.22-3.17-0.45
		c-17.99-4.05-36.2-5.36-54.6-4.58c-2.43,0.1-3.47,0.81-3.28,3.34c0.18,2.39,0.17,4.81-0.02,7.2c-0.05,0.62-1.05,1.17-1.61,1.75
		c-0.45-0.58-1.22-1.12-1.28-1.73c-0.22-2.29-0.31-4.6-0.24-6.9c0.08-2.67-1.01-3.43-3.65-3.21c-18.37,1.53-36.15,5.71-53.48,11.81
		c-5.42,1.91-10.65,4.33-15.83,6.46c1.83,4.58,3.43,8.59,5.07,12.69c8.43-3.24,16.82-7.49,26.41-9.44c0.13,2.86,0.32,5.33,0.34,7.79
		c0.06,7.21,0.01,14.42,0.13,21.63c0.01,0.77,0.84,1.52,1.28,2.29c0.33-0.73,0.94-1.46,0.95-2.2c0.07-9.11,0.21-18.23-0.04-27.33
		c-0.07-2.56,0.58-3.63,2.97-4.09c9.02-1.73,17.99-3.83,27.06-5.24c6.57-1.02,13.27-1.19,20.15-1.76c0.12,1.53,0.26,2.51,0.27,3.48
		c0.06,4.81,0.08,9.61,0.11,14.42c0.01,1.99,0.98,3.25,2.95,3.53c2.15,0.3,3.45-0.85,3.94-2.84c0.24-0.95,0.19-1.98,0.19-2.98
		c0.02-5.05,0.01-10.11,0.01-15.51c3.8,0.21,7.17,0.4,10.55,0.57c12.55,0.64,24.77,3.18,36.92,6.17c2.4,0.59,3.09,1.64,3.03,4.1
		c-0.18,6.9-0.03,13.8,0.06,20.7c0.01,0.95,0.4,1.9,0.62,2.85c0.33,0,0.67,0.01,1,0.01c0.21-1.07,0.6-2.14,0.61-3.21
		c0.08-6.41,0.05-12.82,0.1-19.22c0.03-3.31,0.32-3.58,3.51-2.41c7.13,2.61,14.28,5.2,21.28,8.12c4.01,1.67,7.76,3.96,11.88,6.1
		c-0.79,1.18-1.32,1.88-1.76,2.63c-2.19,3.68-4.51,7.31-6.44,11.12c-0.47,0.92-0.06,3.17,0.66,3.59c0.99,0.58,2.89,0.43,3.97-0.18
		c1.2-0.68,2.06-2.14,2.81-3.42c1.73-2.92,3.45-5.87,4.89-8.94c0.89-1.89,1.71-2.08,3.38-0.96c4.18,2.81,8.45,5.48,12.42,8.04
		c1.68-2.44,3.18-4.8,4.9-6.99c0.41-0.52,1.54-0.48,2.34-0.7c-0.04,0.79,0.2,1.76-0.18,2.33c-1.52,2.33-3.22,4.53-4.96,6.93
		c12.11,8.54,23.27,18.22,33.77,30.55c-3.33,2.86-6.49,5.48-9.52,8.25c-0.54,0.49-0.51,1.6-0.75,2.43c0.79-0.25,1.78-0.27,2.32-0.78
		c2.24-2.13,4.38-4.38,6.5-6.65c1.53-1.63,2.85-2.3,4.57-0.12c7.4,9.4,14.89,18.73,22.57,28.37c-3.21,1.95-5.56,3.29-7.81,4.75
		c-5.03,3.27-10.07,6.53-14.98,9.97c-1.71,1.2-2.81,3.08-1.21,5.16c1.49,1.94,3.38,1.4,5.08,0.27c6.25-4.15,12.57-8.2,18.63-12.62
		c2.21-1.61,3.27-1.38,4.34,0.84c3.98,8.27,8.13,16.47,11.87,24.84c2.01,4.49,3.31,9.29,5.28,14.96c-9.32,0-17.78,0-26.24,0
		c-0.02,0.52-0.03,1.04-0.05,1.56c1.45,0.14,2.9,0.39,4.35,0.39c6.51,0.01,13.01-0.01,19.52-0.09c1.82-0.02,2.91,0.39,3.33,2.47
		c1.16,5.67,2.71,11.27,3.83,16.95c0.79,3.98,1.12,8.04,1.68,12.22c-7.73,0.77-15.17,0.09-22.48,1.64c1,0.78,2,1.04,3,1.04
		c5.91,0.04,11.81,0.06,17.72-0.01c1.59-0.02,2.45,0.45,2.57,2.13c0.41,5.98,0.86,11.95,1.32,18.35c-1.51,0-2.78,0-4.06,0
		c-5.6,0.03-11.21,0.01-16.81,0.1c-2.73,0.04-4.85,1.69-4.61,3.69c0.31,2.57,2.11,3.73,4.6,3.85c1,0.05,2,0.03,3,0.03
		c5.87,0,11.75,0,17.93,0c-1.05,21.16-4.03,41.52-10.34,61.25c-4.07,0.22-7.28-3.56-11.24-2.08c-0.1,0.35-0.19,0.7-0.29,1.04
		c3.48,1.21,6.97,2.42,10.61,3.68c-4.59,12.59-9.85,24.49-16.76,35.76c-7.26-4.91-14.3-9.66-21.32-14.42
		c-1.54-1.05-3.15-1.71-4.49,0.07c-1.29,1.72-1.27,3.58,0.52,5.07c1.15,0.96,2.36,1.86,3.58,2.72c5.81,4.06,11.63,8.1,17.69,12.32
		c-6.62,11.03-14.87,20.54-23.93,30.55c-4.52-4.83-8.73-9.39-13.03-13.85c-0.67-0.69-1.75-0.99-2.64-1.46
		c-0.25,0.35-0.5,0.7-0.75,1.05c4.95,5.12,9.9,10.24,15.37,15.9c-8.24,7.51-16.27,14.81-23.94,21.8c1.32,1.48,2.98,2.99,4.16,4.81
		c0.64,0.98,0.46,2.49,0.66,3.77c-1.09-0.62-2.46-1.02-3.21-1.92c-1.41-1.72-2.47-3.74-3.5-5.36c-7.86,4.96-15.41,9.72-23.08,14.57
		c-1.16-2.3-1.94-4.01-2.87-5.64c-1.79-3.12-3.47-6.33-5.62-9.18c-0.7-0.92-3.04-1.46-4.13-1.01c-1.64,0.68-2.07,2.54-0.97,4.35
		c0.52,0.85,0.91,1.78,1.39,2.66c2.17,3.88,4.36,7.76,6.62,11.76c-11.57,6.58-23.71,10.87-36.46,14.67c0-1.95,0-3.44,0-4.93
		c-0.04-10.62-0.06-21.23-0.15-31.84c-0.01-1.21-0.42-2.42-0.64-3.63c-0.39,0.02-0.79,0.05-1.18,0.07c-0.17,1-0.47,2-0.48,2.99
		c-0.02,11.61-0.09,23.23,0.1,34.84c0.04,2.65-0.78,3.77-3.28,4.22c-11.01,2-21.98,4.19-33.01,6.09c-2.42,0.42-3.64,1.11-3.46,3.72
		c0.17,2.39,0.08,4.81,0.04,7.21c-0.04,2.5,1.09,3.43,3.56,3.03c9.28-1.49,18.6-2.76,27.84-4.46c7.16-1.31,7.82-1.01,8.37,6.46
		c0.07,1,0.24,2.01,0.14,2.99c-0.06,0.67-0.5,1.3-0.77,1.95c-0.27,0.01-0.53,0.01-0.8,0.02c-0.39-0.92-0.99-1.81-1.15-2.78
		c-1.1-6.75-1.07-6.75-7.8-5.29c-0.1,0.02-0.19,0.05-0.29,0.08c-22.8,5.09-45.82,5.91-68.96,3.16c-7.43-0.88-14.76-2.64-22.14-4.02
		c-3.87-0.72-4.62-0.2-5.15,3.64c-0.25,1.78-0.46,3.57-0.77,5.35c-0.3,1.71,0.29,2.59,2.04,2.95c12.76,2.58,25.56,4.73,38.61,5.44
		c30.61,1.66,60.28-2.75,89-13.43c20.25-7.53,39.53-17.05,57.23-29.47c19.21-13.48,35.91-29.73,50.47-48.14
		c4.85-6.13,5.59-5.09-1.72-10.82c-2.34-1.83-3.95-1.73-5.91,0.81c-21.46,27.75-47.93,49.51-79.07,65.61
		c-4.23,2.19-4.24,2.16-2.95,6.71c0.11,0.38,0.32,0.82,0.21,1.16c-0.19,0.61-0.45,1.33-0.92,1.65c-0.26,0.18-1.14-0.23-1.5-0.6
		c-0.47-0.48-0.86-1.15-1.02-1.8c-0.76-3.1-2.35-3.17-5.08-2.05c-8.42,3.43-16.96,6.57-25.49,9.73c-0.61,0.23-1.49-0.24-2.24-0.39
		c0.35-0.76,0.49-1.86,1.08-2.21c1.27-0.74,2.8-1.04,4.18-1.62c12.61-5.32,25.56-9.99,37.75-16.15
		c21.54-10.89,40.04-26.08,56.85-43.3c18.01-18.45,32.32-39.45,42.54-63.16c8.2-19.05,13.71-38.86,16.18-59.47
		c1.68-14.05,1.96-28.16,0.8-42.28c-0.2-2.37-1.27-3.37-3.67-3.21c-2.19,0.15-4.41,0.14-6.6,0.01c-0.75-0.05-1.47-0.68-2.2-1.05
		c0.7-0.53,1.37-1.46,2.12-1.53c2.88-0.28,5.8-0.19,8.68-0.42c2.92-0.23,4.27,0.92,4.3,3.89c0.1,11.41,0.44,22.82,0.34,34.23
		c-0.06,6.29-1.51,7.12,6.87,6.88c2.93-0.08,3.97-1.03,4.23-3.97C654.78,285.43,653.12,261.26,648.06,237.29z M464.71,61.11
		c0.36-0.07,0.72-0.15,1.07-0.22c0.28,1.47,0.56,2.93,0.85,4.4C463.55,64.44,463.83,62.84,464.71,61.11z M479.52,72.05
		c-0.94-0.2-2.02-1.69-2.19-2.75c-0.09-0.56,1.66-2.05,2.49-1.98c1.05,0.09,2,1.34,3.78,2.68
		C481.65,71.06,480.43,72.25,479.52,72.05z M388.56,517.7c-0.6-0.56-1.64-1.08-1.7-1.69c-0.07-0.73,0.7-1.54,1.41-2.92
		c0.99,1.26,1.99,1.97,1.97,2.66C390.22,516.41,389.16,517.05,388.56,517.7z M556.56,469.95c0.38-0.18,1.41,1.05,2.67,2.06
		c-1.29,1.05-2.06,2.16-2.77,2.12c-0.72-0.03-2.06-1.37-1.94-1.83C554.75,471.36,555.67,470.36,556.56,469.95z M643.22,267.19
		c-0.78-1.29-1.66-2.09-1.58-2.78c0.09-0.73,1.08-1.35,1.68-2.02c0.64,0.74,1.64,1.41,1.8,2.24
		C645.22,265.2,644.16,265.99,643.22,267.19z"/>
	<path d="M405.84,499.24c0.3-3.29-1.35-4.09-4.32-4.6c-10.62-1.83-21.18-4.03-31.77-6.07c-1.92-0.37-2.83-1.2-2.73-3.43
		c0.22-4.7,0.07-9.41,0.08-14.11c0.01-6.81,0.05-13.62-0.02-20.43c-0.01-0.7-0.69-1.39-1.06-2.08c-0.45,0.67-0.98,1.3-1.31,2.02
		c-0.19,0.42-0.05,0.99-0.05,1.49c-0.01,9.11-0.02,18.22-0.02,27.33c0,2.36,0,4.72,0,7.72c-13-4.11-25.14-8.4-36.79-14.63
		c0.92-1.56,1.64-2.74,2.31-3.95c2.04-3.67,4.22-7.28,5.95-11.09c0.43-0.95-0.23-3.03-1.09-3.73c-0.64-0.51-2.5,0.17-3.64,0.71
		c-0.71,0.34-1.12,1.37-1.58,2.13c-2.49,4.08-4.96,8.18-7.65,12.63c-5.67-3.45-11.22-6.83-16.81-10.23
		c3.05-4.04,5.68-7.52,8.37-11.09c-0.59-0.48-1.26-1.07-1.28-1.05c-3.15,3.34-6.25,6.72-9.44,10.2
		c-10.09-7.12-19.3-15.22-28.08-23.86c-1.47-1.45-0.8-2.34,0.28-3.47c4-4.18,8-8.38,11.93-12.63c0.83-0.9,1.4-2.05,2.1-3.08
		c-0.38-0.32-0.76-0.63-1.14-0.95c-5.44,5.4-10.89,10.81-16.5,16.38c-8.92-9.32-16.65-19.27-23.52-30.27
		c4.35-2.89,8.51-5.62,12.65-8.4c2.74-1.84,5.47-3.69,8.13-5.63c1.77-1.29,2.89-3.02,1.33-5.11c-1.41-1.91-3.27-1.56-5.07-0.41
		c-0.34,0.21-0.65,0.46-0.99,0.68c-6.35,4.12-12.7,8.23-19.32,12.52c-6.63-10.93-12.13-22.36-16.3-34.42
		c6.43-2.81,12.78-4.11,19.21-4.07c2.4,0.02,4.81,0.02,7.21-0.11c0.52-0.03,1.01-0.66,1.52-1.02c-0.45-0.45-0.84-1.08-1.38-1.29
		c-0.62-0.24-1.38-0.07-2.08-0.13c-7.7-0.6-15.14,0.61-22.35,3.32c-2.06,0.77-3.15,0.39-3.92-1.98c-4.16-12.9-7.14-26.05-8.54-39.52
		c-0.65-6.32-0.87-12.69-1.3-19.36c6.84,0,13.19,0.02,19.55-0.01c2.83-0.02,5.08-1.86,5.09-4.05c0.02-2.1-1.97-3.63-5-3.71
		c-2.4-0.06-4.81,0.04-7.21,0.04c-3.97,0.01-7.93,0-12.35,0c0.46-7.11,0.89-13.75,1.32-20.42c6.61,0,12.8,0.06,18.98-0.05
		c1.23-0.02,2.45-0.65,3.67-1c-1.26-0.44-2.51-1.22-3.78-1.25c-6.07-0.13-12.15-0.06-19-0.06c2.24-10.41,4.38-20.05,6.32-29.73
		c0.4-1.99,1.26-2.28,3.04-2.25c7,0.09,14,0.04,21-0.04c1.06-0.01,2.11-0.47,3.16-0.71c-0.07-0.47-0.14-0.94-0.2-1.41
		c-8.4,0-16.8,0-25.57,0c3.82-14.75,9.57-27.84,17.23-40.11c1.16-1.86,2.19-1.03,3.41-0.14c3.48,2.53,6.96,5.05,10.5,7.49
		c2.8,1.92,5.58,3.93,8.6,5.42c1.05,0.52,3.26,0.06,4.15-0.78c1.38-1.31,0.89-3.15-0.65-4.43c-0.77-0.64-1.55-1.27-2.38-1.82
		c-6.4-4.23-12.82-8.45-19.9-13.1c7.55-10.26,15.04-20.44,22.76-30.94c1.86,1.58,3.17,2.6,4.38,3.74c3.34,3.16,6.59,6.42,9.97,9.54
		c0.64,0.59,1.71,0.71,2.58,1.05c0.17-0.33,0.34-0.66,0.51-0.98c-0.9-1.02-1.74-2.12-2.72-3.06c-3.31-3.19-6.63-6.36-10.01-9.47
		c-1.78-1.64-2.22-3.02-0.16-4.89c8.44-7.65,16.77-15.42,25.2-23.08c1.27-1.16,2.86-1.96,4.42-3.01c1.75,2.15,3.09,4.18,4.8,5.82
		c1.54,1.47,1.88,4.49,4.69,4.45c0.33-0.28,0.66-0.56,1-0.84c-2.74-3.66-5.48-7.32-8.45-11.29c5.45-3.44,10.86-6.87,16.43-10.39
		c1.12,1.99,1.93,3.48,2.8,4.93c1.79,3,3.52,6.04,5.46,8.94c1.07,1.59,2.77,2.66,4.63,1.36c1.95-1.35,1.53-3.17,0.41-5.01
		c-2.58-4.25-5.07-8.57-7.71-13.07c2.66-1.43,5.17-2.77,7.72-4.13c-1.49-3.23-2.84-6.31-4.32-9.32c-1.04-2.1-2.43-2.64-4.84-1.5
		c-11.64,5.48-22.46,12.25-32.72,19.98c-31.33,23.61-54.93,53.45-71.73,88.79c-1.01,2.12-1.79,4.35-2.72,6.66
		c2.74,1.35,5.21,2.46,7.56,3.76c0.73,0.41,1.18,1.35,1.75,2.04c-0.98,0.14-2.05,0.61-2.92,0.36c-1.62-0.45-3.2-1.19-4.66-2.04
		c-2.15-1.25-3.26-0.93-4.17,1.56c-4.85,13.29-8.47,26.9-10.84,40.84c-0.17,0.99-0.25,2.03-0.65,2.92c-0.22,0.5-1.04,1.03-1.55,1
		c-0.38-0.03-0.88-0.9-0.99-1.47c-0.13-0.66,0.07-1.39,0.18-2.08c3.09-19.6,8.9-38.39,17.24-56.35
		c6.12-13.18,13.53-25.67,22.2-37.36c1.43-1.92,1.66-3.49-0.56-5.01c-1.31-0.9-2.44-2.07-3.66-3.1c-2.57-2.18-3.46-2.08-5.6,0.65
		c-0.37,0.47-0.73,0.95-1.08,1.44c-18.44,25.85-30.89,54.35-37.81,85.31c-4.02,17.98-5.43,36.19-5.3,54.57
		c0.02,2.3,0.7,3.33,3.11,3.12c1.89-0.16,3.81-0.13,5.7-0.01c2.65,0.16,3.4-1.02,3.42-3.58c0.06-7.8,0.43-15.6,0.54-23.41
		c0.03-2.14-0.55-4.28-0.61-6.43c-0.02-0.79,0.51-2.1,1.06-2.27c0.65-0.19,1.99,0.39,2.32,1.01c0.46,0.89,0.4,2.13,0.35,3.21
		c-0.25,4.8-0.52,9.6-0.91,14.38c-0.18,2.22,0.63,3.15,2.86,3.07c2.2-0.08,4.41-0.09,6.6,0.05c0.65,0.04,1.26,0.69,1.88,1.06
		c-0.61,0.53-1.18,1.45-1.83,1.52c-1.98,0.2-4.02,0.24-5.99,0.01c-2.91-0.33-3.75,1.08-3.65,3.64c0.09,2.4,0.29,4.81,0.11,7.19
		c-0.2,2.52-1.48,3.96-4.38,3.66c-2.48-0.26-5-0.04-7.5-0.11c-2.2-0.06-3.15,0.99-2.98,3.11c0.22,2.69,0.36,5.4,0.78,8.06
		c0.12,0.78,0.95,1.83,1.69,2.08c4.5,1.49,6.85,0.23,8.44-4.3c0.49-1.41,0.99-2.81,1.48-4.22c3.03,3.16,0.1,5.66-0.05,8.58
		c3.47,1.76,4.54,4.96,4.65,8.67c0.03,0.8,0.11,1.6,0.21,2.39c3.75,29.4,14.5,56.23,29.96,81.32c0.71,1.15,1.61,2.18,2.2,2.97
		c1.53-0.54,2.65-0.93,3.77-1.33c0.31,0.18,0.61,0.35,0.92,0.53c-3.7,3.18-1.21,5.31,0.55,7.58c0.42,0.54,0.91,1.15,1.03,1.79
		c0.15,0.82-0.05,1.7-0.09,2.56c-0.29,0.03-0.58,0.06-0.86,0.09c-1.36-1.7-2.79-3.36-4.07-5.12c-1.14-1.57-2.3-1.73-3.74-0.47
		c-1.96,1.71-3.89,3.46-5.91,5.09c-1.62,1.31-1.54,2.52-0.3,4.06c7.41,9.19,14.54,18.61,22.22,27.57
		c10.17,11.85,22.65,21.14,35.16,30.34c0.74,0.55,2.64,0.83,2.98,0.41c2.18-2.68,4.08-5.6,6.19-8.61c-1.3-1.03-2.31-1.83-3.31-2.63
		c-4.86-3.86-9.79-7.64-14.56-11.59c-4.75-3.93-4.69-4.01-8.75,0.77c-0.26,0.31-0.47,0.69-0.8,0.89c-0.9,0.54-1.84,1-2.77,1.49
		c0.29-1.11,0.33-2.38,0.92-3.29c1.18-1.82,2.67-3.45,4.16-5.32c-1.11-1.28-2.05-2.43-3.07-3.51c-5.21-5.55-10.47-11.04-15.61-16.65
		c-0.89-0.97-1.31-2.38-1.94-3.59c-1.65,1-2.74,0.37-3-1.35c-0.09-0.6,0.76-1.34,1.19-2.02c0.68,1.01,1.35,2.01,2.03,3.02
		c1.24,0.66,2.72,1.07,3.67,2.01c6.66,6.63,12.96,13.65,19.84,20.03c23.61,21.89,50.81,37.75,81.4,47.87
		c15.27,5.05,30.86,8.46,46.86,9.97c3.4,0.32,4.06-0.32,4.03-3.76C405.91,503.04,405.68,501.13,405.84,499.24z M229.93,165.05
		c0.83,1.61,1.66,2.5,1.58,3.3c-0.07,0.68-1.18,1.26-1.82,1.89c-0.64-0.72-1.75-1.4-1.8-2.16
		C227.84,167.34,228.87,166.53,229.93,165.05z M195.02,309.6c-0.91-1.64-1.84-2.56-1.71-3.28c0.15-0.79,1.28-1.4,1.98-2.1
		c0.59,0.77,1.58,1.5,1.65,2.31C197,307.27,196.04,308.08,195.02,309.6z"/>
	<path d="M433.67,278.6c-0.31,0.03-0.58,0-0.76-0.12c-1.14-0.74-2.41-1.35-3.26-2.42c-5.9-2.87-12.59-3.35-18.06-0.24
		c-0.61,0.71-1.41,1.31-2.41,1.84c-2.59,2.2-4.63,4.89-4.85,8.5c0.06,0.18,0.11,0.35,0.13,0.52c0.26,2.46,0.09,4.97,0.09,7.84
		c-1.35,0-2.42,0-3.49,0c-18.12-0.01-36.24-0.03-54.37-0.01c-19.12,0.01-38.25,0.05-57.37,0.13c-1.17,0-2.35,0.49-3.52,0.76
		c0.05,0.38,0.09,0.76,0.14,1.14c1.12,0.12,2.25,0.35,3.37,0.36c19.92,0.02,39.85,0.01,59.77,0.02c17.92,0.01,35.84-0.01,53.77,0.09
		c1.18,0.01,2.84,0.54,3.47,1.41c6,8.32,13.72,10.52,23.14,6.53c0.31-0.13,0.7-0.2,1.1-0.21c2.58-1.86,4.88-3.83,6.29-7.12
		c-0.28-0.24-0.56-0.48-0.85-0.73c5.93,0,10.99,0.04,16.05-0.03c1.11-0.02,2.21-0.46,3.31-0.71c-0.04-0.44-0.09-0.88-0.13-1.32
		c-5.99,0-11.99,0-17.81,0c0-2.95,0.29-5.28-0.08-7.51c-0.17-1.03-0.09-1.8,0.21-2.45C436.86,282.53,435.62,280.37,433.67,278.6z
		 M421.4,298.81c-4.43-0.01-9.01-4.39-9.16-8.77c-0.17-4.77,3.8-9.25,8.3-9.37c4.93-0.13,9.3,4.05,9.39,8.99
		C430.01,294.42,425.9,298.82,421.4,298.81z"/>
	<path d="M407.33,65.96c-3.87,0.5-7.74,1.03-11.62,1.49c-33.66,3.97-64.83,15.11-93.13,33.63c-20.47,13.39-38.37,29.81-53.19,49.41
		c-2.97,3.93-3.1,3.94-6.94,0.64c-0.46-0.39-0.91-0.78-1.39-1.15c-4.46-3.42-4.46-3.41-0.99-7.78
		c14.09-17.74,30.16-33.48,48.62-46.58c24.67-17.5,51.97-29.25,81.47-35.92c0.78-0.18,1.55-0.38,2.33-0.56
		c5.96-1.38,5.95-1.37,8.77,4.15c0.27,0.53,0.53,1.16,0.99,1.48c0.65,0.46,1.48,0.68,2.23,1.01c0.25-0.9,0.87-1.9,0.66-2.67
		c-0.3-1.09-1.31-1.97-1.86-3.02c-0.9-1.71-0.89-3.03,1.52-3.42c14.17-2.31,28.44-3,42.77-2.67c2.2,0.05,3.37,0.98,3.32,3.54
		c-0.19,9.06,0.83,8.55-8.69,8.6c-3.6,0.02-7.21,0.15-10.81,0.08c-1.4-0.02-2.79-0.44-4.19-0.67
		C407.26,65.69,407.29,65.82,407.33,65.96z"/>
	<path d="M601.93,417.51c3.51-5.56,6.99-10.8,10.2-16.19c14.92-25.07,24.05-52.19,28.21-81.01c0.38-2.61,1.47-3.57,4.11-3.5
		c9.29,0.22,7.98-0.82,6.51,8.63c-5,31.98-15.47,62-33.03,89.36c-1.67,2.61-3.39,5.19-5.07,7.79c-1.03,1.58-2.11,1.82-3.67,0.52
		C606.89,421.18,604.45,419.44,601.93,417.51z M620.66,399.21c0.89-1.44,1.78-2.26,1.77-3.08c0-0.62-1.15-1.23-1.78-1.85
		c-0.66,0.72-1.67,1.36-1.86,2.19C618.66,397.04,619.69,397.86,620.66,399.21z"/>
	<path d="M556.68,268.49c5.91-4.28,12.57-6.97,20.42-5.03c6.87,1.7,11.69,7.24,11.02,13.38c-0.3,2.72-1.91,5.29-3.05,8.26
		c3.77,3,6.4,7.3,5.74,12.99c-1.07,9.21-9.55,15.78-19.33,15.02c-1.88-0.15-3.75-0.6-5.61-0.96c-3.12-0.6-5.94-1.34-5.7-5.61
		c0.07-1.31-1.19-2.68-1.74-4.06c-0.28-0.69-0.68-1.7-0.39-2.14c0.32-0.48,1.4-0.71,2.11-0.63c3.26,0.36,6.54,0.69,9.75,1.37
		c4.36,0.93,7.19-0.28,8.74-4.48c-40.13,0-80.1,0-120.08,0c-0.07-0.39-0.15-0.78-0.22-1.17c1.24-0.29,2.48-0.82,3.71-0.82
		c28.43-0.04,56.85-0.01,85.28-0.01c9.61,0,19.22-0.05,28.83-0.09c0.66,0,1.31-0.13,2.47-0.25c-3.3-4.82-7.42-5.41-12.15-3.67
		c-0.39-4.1,2.39-8.36,5.76-9.8c1.34-0.57,2.42-1.78,3.61-2.7c-1.17-1.15-2.23-3.09-3.54-3.27c-2.29-0.32-4.77,0.28-7.1,0.82
		c-0.96,0.22-1.71,1.3-2.22,1.71C560.93,274.47,558.91,271.63,556.68,268.49z"/>
	<path d="M225.83,417.53c-0.72-0.84-1.47-1.5-1.95-2.3c-17.14-28.66-28.57-59.4-33.45-92.5c-1-6.78-1.51-6.62,5.63-6.54
		c5.67,0.06,5.67,0.14,6.36,5.72c2.28,18.27,6.88,35.99,14.39,52.78c4.92,11.02,10.81,21.62,16.43,32.32
		c1.18,2.26,1.36,3.71-0.91,5.26C230.13,413.78,228.15,415.63,225.83,417.53z"/>
	<path d="M416.98,432.05c9.9-3.21,16.96-0.52,20.24,7.33c3.43,8.21-0.25,17.86-8.37,21.9c-11.5,5.73-24.98-2.21-26.33-15.51
		c-0.81-7.98,0.86-15.28,5.87-21.72c2.63-3.39,5.68-6.14,9.73-7.72c4.27-1.66,8.51-3.41,12.77-5.08c0.41-0.16,0.93-0.07,1.06-0.08
		c0,5.7,0,11.23,0,17.59c-3.15-2.53-5.63-4.55-8.95-3.15C420.21,426.77,418.27,428.82,416.98,432.05z M426.05,445.55
		c-0.02-3.36-2.21-6.03-4.96-6.05c-2.82-0.02-4.94,2.75-4.89,6.39c0.05,3.49,2.11,5.82,5.11,5.78
		C424.18,451.63,426.08,449.18,426.05,445.55z"/>
	<path d="M281.83,361.16c-5.34-5.22-6.43-8.88-4.2-13.82c2.52-5.58,8.72-9.09,15.2-8.59c3.68,0.29,7.05,1.39,9.79,3.97
		c5.26,4.95,5.36,11.92,0.25,16.94c-0.42,0.41-1.03,0.62-1.48,0.89c1.86,1.77,3.53,2.96,4.67,4.54c3.47,4.79,2.62,11.01-1.91,15.51
		c-5.08,5.05-13.77,6.25-20.32,2.86C275.06,378.91,272.44,368.15,281.83,361.16z M291.86,375.5c2.43,0.02,4.35-1.91,4.33-4.37
		c-0.02-2.45-2.15-4.93-4.3-4.99c-2.1-0.06-4.28,2.43-4.3,4.93C287.56,373.57,289.41,375.48,291.86,375.5z M288.15,352.18
		c0.06,2.1,1.83,3.88,3.84,3.73c2.27-0.17,3.43-1.64,3.39-3.78c-0.04-2.24-1.29-3.78-3.65-3.95
		C289.81,348.06,288.09,350.09,288.15,352.18z"/>
	<path d="M282.75,296.56c-3.89-0.53-4.85,2.11-6.32,4.17c-3.86,5.4-8.88,9.46-14.77,12.43c-0.65,0.33-1.98,0.44-2.31,0.06
		c-2.69-3.16-5.21-6.47-7.42-9.27c3-0.48,6.04-0.49,8.67-1.54c2.16-0.87,3.82-2.97,5.71-4.53c-0.11-0.39-0.22-0.77-0.33-1.16
		c-4.41,0-8.82,0-13.24,0c-0.02-0.39-0.04-0.79-0.06-1.18c1.89-1.95,4.5-0.72,6.74-0.92c2.47-0.22,4.98-0.05,7.47-0.05
		c0.03-0.27,0.05-0.53,0.08-0.8c-1.93-0.12-3.86-0.21-5.78-0.35c-7.17-0.5-13.19-7.25-12.9-14.43c0.31-7.59,5.14-14.02,11.77-15.66
		c8.27-2.05,15.8,1.02,19.83,8.06c3.23,5.64,3.41,11.56,1.76,17.71C281.02,291.49,279.1,294.1,282.75,296.56z M269.92,281.16
		c-0.2-1.23-0.28-2.23-0.54-3.18c-0.64-2.36-2.11-3.95-4.67-3.8c-2.4,0.14-4.04,1.83-4.05,4.06c-0.01,2.36,0.34,5.04,1.5,7.02
		c1.82,3.12,5.57,2.51,6.96-0.85C269.57,283.34,269.69,282.13,269.92,281.16z"/>
	<path d="M481.61,393.99c4.46,0.26,9.12,0.39,13.76,0.82c4.84,0.45,9.06-1.09,12.8-4.06c-0.33,4.23-0.5,7.84-1,11.4
		c-0.1,0.75-1.38,1.79-2.22,1.9c-2.85,0.37-5.75,0.42-8.63,0.54c-1.48,0.06-2.97,0.01-4.69,0.01c0,1.21,0,2.23,0,3.47
		c1.52,0.12,3,0.16,4.46,0.36c9.47,1.28,15.63,7.59,15.89,16.25c0.28,9.58-5.79,17.41-15.44,18.73c-3.99,0.54-8.25-0.59-12.34-1.25
		c-0.7-0.11-1.45-1.61-1.7-2.58c-0.7-2.74-1.2-5.53-1.66-8.32c-0.11-0.65,0.02-1.63,0.44-2.02c1.13-1.04,6.12-0.46,7.22,0.68
		c2.52,2.59,4.83,3.15,7.46,1.8c2.64-1.36,4.05-4.81,3.38-8.31c-0.57-3.03-2.96-5.5-5.91-5.44c-2.12,0.04-4.39,0.52-6.31,1.41
		c-3.19,1.48-5.26,0.52-5.52-3.04c-0.01-0.2,0-0.4,0-0.6c0.01-3.7,0.02-7.4,0.02-11.1C481.62,400.97,481.61,397.31,481.61,393.99z"
		/>
	<path d="M637.5,229.75c-2.62,0.05-3.46-1.64-4.06-3.73c-4.84-16.82-12-32.65-20.79-47.73c-3.92-6.73-8.41-13.14-12.81-19.57
		c-1.35-1.97-1.05-3.26,0.67-4.53c7.88-5.82,5.88-6.67,11.74,1.63c14.72,20.88,25.42,43.67,32.46,68.2
		c1.09,3.81,1.04,3.87-2.85,4.71C640.41,229.03,638.96,229.41,637.5,229.75z"/>
	<path d="M365.46,507.63c-0.21,1.28-0.41,2.56-0.64,3.84c-1.06,5.94-1.08,6-6.96,4.18c-22.17-6.86-43.18-16.25-62.69-28.86
		c-3.91-2.53-3.94-2.6-1.39-6.28c5.55-8.02,4.13-6.51,10.78-2.37c17.94,11.17,37.09,19.53,57.27,25.65
		C363.75,504.37,365.94,504.73,365.46,507.63z"/>
	<path d="M424.03,128.22c-1.34-1.03-2.31-1.76-3.26-2.52c-1.71-1.37-3.47-2.69-5.05-4.19c-0.57-0.54-1.19-1.75-0.95-2.3
		c3.08-7.31,8.91-11.09,16.37-10.73c4.58,0.22,8.59,1.8,11.66,5.35c4.87,5.64,4.97,13.16-0.25,18.48c-2.91,2.97-6.53,5.24-9.79,7.85
		c-1.03,0.82-1.97,1.76-2.73,3.1c4.77-0.23,9.8,2.36,13.82-2.07c0.13-0.15,0.28-0.28,0.42-0.43c0.84-0.91,1.68-1.83,2.52-2.75
		c0.24,1.39,0.65,2.79,0.69,4.18c0.09,4.18,0.03,8.37,0.03,12.25c-10.87-0.24-21.64-1.71-32.3,1.29c-0.26-0.2-0.52-0.41-0.78-0.61
		c1.88-3.42,3.41-7.09,5.72-10.19c3.81-5.13,8.12-9.89,12.23-14.8c1.51-1.8,2.06-3.98,0.72-5.8c-1.04-1.42-2.94-2.98-4.53-3.06
		c-2.28-0.12-3.93,1.72-4.25,4.25C424.21,126.2,424.16,126.88,424.03,128.22z"/>
	<path d="M546.45,222.21c3.16,0,6.54,0.7,9.41-0.21c2.6-0.82,4.65-3.39,7.06-5.29c0.12,0.36,0.43,0.88,0.44,1.4
		c0.04,3.99,0,7.99,0.04,11.98c0.02,1.67-0.14,2.78-2.39,2.78c-10.1,0-20.21,0.21-30.31,0.31c-0.82,0.01-1.64-0.24-2.37-0.35
		c5.25-6.11,10.35-12.01,15.41-17.94c1.49-1.75,2.84-3.62,4.32-5.38c1.63-1.94,1.07-3.97-0.33-5.42c-1.02-1.05-3.15-2.13-4.26-1.73
		c-1.61,0.58-2.92,2.35-4.03,3.86c-0.52,0.72-0.27,2-0.42,3.61c-3.75-3.14-6.97-5.85-10.26-8.61c3.38-4.87,6.82-9.7,13.03-10.79
		c1.68-0.29,2.21-6.2,5.33-1.01c0.97,1.61,4.57,1.51,6.81,2.52c3.43,1.55,5.67,4.28,7.03,7.82c1.38,3.59,1.12,7.09-1.35,9.88
		c-2.56,2.88-5.7,5.24-8.64,7.77c-1.56,1.34-3.23,2.56-4.85,3.83C546.22,221.56,546.34,221.88,546.45,222.21z"/>
	<path d="M547.54,384.31c0.59-0.85,0.84-1.53,1.32-1.87c2.34-1.67,1.53-3.92,0.61-5.65c-0.58-1.08-2.4-2.03-3.71-2.09
		c-4.88-0.24-9.78-0.1-15.01-0.1c-0.13-4.37-0.79-8.18,2.64-11.86c8.31-8.92,16.14-18.29,24.19-27.45c0.75-0.85,1.66-1.56,2.49-2.33
		c0.24,0.12,0.49,0.24,0.73,0.36c-0.17,1.38-0.48,2.76-0.49,4.14c-0.01,8.6-0.01,17.2,0.17,25.8c0.02,0.96,1.14,1.89,2.32,2.6
		c0,2.78,0,5.56,0,8.33c-3.46,0.48-3.05,4.84-0.53,10.11C557.47,384.31,552.81,384.31,547.54,384.31z M542,364.91
		c7.4,0.9,8.74-0.62,6.3-6.98C546.21,360.24,544.27,362.39,542,364.91z"/>
	<path d="M290.94,210.82c0-3.9-0.12-7.8,0.03-11.69c0.25-6.42,4.82-10.12,11.24-9.3c6.27,0.8,11.36,5.93,11.82,12.85
		c0.43,6.36,0.35,12.79-0.02,19.15c-0.35,5.85-5.85,11.43-11.21,12.18c-6.62,0.92-11.56-3.24-11.9-10.29
		c-0.21-4.29-0.04-8.6-0.04-12.89C290.89,210.82,290.92,210.82,290.94,210.82z M307.02,211.66c-0.95-2.34-1.72-5.02-3.09-7.35
		c-1.43-2.43-3.59-2.29-5.32-0.06c-2.85,3.68-2.91,11.25-0.11,14.99c1.93,2.58,4.77,2.59,6.23-0.27
		C305.79,216.91,306.17,214.49,307.02,211.66z"/>
	<path d="M331.55,392.17c5.6,3.25,11.01,2.76,16.32,2.57c5.3-0.19,10.58-0.88,16.13-1.37c-0.67,4.26,0.72,9.08-2.8,13.83
		c-6.12,8.26-10.26,17.64-11.18,28.1c-0.21,2.44-0.03,4.92-0.03,7.82c-5.38-4.13-9.27-1.24-13.04,2.91
		c0.2-7.51,1.75-14.55,4.86-21.08c3.08-6.45,6.8-12.6,10.21-18.83c-5.97-2.16-13.28-0.57-17.66,4c-0.47,0.49-1.28,0.65-1.93,0.96
		c-0.08-0.7-0.39-1.47-0.22-2.11C333.88,402.84,333.83,398.54,331.55,392.17z"/>
	<path d="M394.52,114.95c2.82-0.88,5.75-1.52,8.43-2.71c2.59-1.15,4.93-2.88,7.67-4.54c0.08,0.79,0.21,1.51,0.21,2.22
		c-0.08,12.29-0.3,24.58-0.19,36.86c0.02,2.64,1.24,5.28,1.86,7.72c-4.99,0-10.02,0-15.29,0c0-0.16-0.23-0.88,0.04-1.22
		c2.12-2.69,1.73-5.84,1.74-8.91c0.02-6.2-0.07-12.39,0.06-18.59C399.13,121.55,399.73,117.2,394.52,114.95z"/>
	<path d="M504.82,176.61c-5.4,0-10.37,0-14.66,0c0.31-3.63,0.8-7.09,0.87-10.57c0.12-5.8-0.2-11.61,0-17.41
		c0.14-3.9-1.28-6.55-4.78-8.16c-0.35-0.16-0.66-0.42-0.98-0.66c-0.05-0.04-0.02-0.18-0.08-0.75c6.39-1.19,12.43-3.5,16.97-9.06
		c0,8.53-0.26,16.15,0.07,23.75C502.57,161.21,500.5,168.95,504.82,176.61z"/>
	<path d="M424.63,495.71c1.45,0,2.43,0,3.4,0c4.48,0.02,4.48,0.02,4.43,4.66c0,0.1,0,0.2,0,0.3c-0.15,2.75,0.72,6.55-0.73,7.98
		c-1.5,1.48-5.26,0.78-8.03,0.81c-3.89,0.04-7.79-0.23-11.68-0.17c-2.34,0.04-3.28-1.03-3.3-3.18c-0.02-2.7,0.06-5.4-0.02-8.09
		c-0.06-1.87,0.79-2.48,2.54-2.4c1.88,0.08,3.76,0.02,6.04,0.02c0.07-1.01,0.19-2.05,0.19-3.08c0-5.69-0.01-11.38-0.07-17.08
		c-0.02-2.51,0.83-4.38,3.53-4.69c2.28-0.26,3.61,1.54,3.7,4.71c0.02,0.8,0,1.6,0,2.4C424.63,483.67,424.63,489.46,424.63,495.71z"
		/>
	<path d="M326.18,142.1c4.84-3.82,9.46-7.45,14.2-11.18c0.2,0.33,0.64,0.72,0.64,1.12c-0.11,13.49-0.28,26.98-0.35,40.47
		c-0.01,1.34,0.6,2.68,1.01,4.38c-4.81,0-9.63,0-13.72,0c0.45-2.88,1.17-5.67,1.27-8.48c0.2-5.59-0.02-11.2,0.07-16.8
		C329.35,147.85,329.55,144.14,326.18,142.1z"/>
	<path d="M357.3,176.81c-4.41,0-8.89,0-13.02,0c0-11.22,0.32-22.47-0.19-33.68c-0.16-3.54,1.14-4.76,3.65-6.24
		c2.87-1.69,5.48-3.82,8.49-5.97c0.23,0.98,0.52,1.53,0.46,2.03c-0.33,2.83-1.03,5.65-1.07,8.48c-0.14,10.1-0.13,20.21,0,30.31
		C355.65,173.34,356.65,174.93,357.3,176.81z"/>
	<path d="M288.59,233.82c-3.91,0-7.96,0-11.54,0c0.22-3.36,0.58-6.58,0.6-9.8c0.06-7.58-0.02-15.17-0.11-22.76
		c-0.01-0.95-0.09-2.21-0.67-2.78c-1.99-1.96-0.98-2.61,0.95-3.59c2.83-1.43,5.43-3.29,8.19-4.87c0.68-0.39,1.58-0.4,2.38-0.59
		c0.08,0.75,0.24,1.5,0.22,2.25c-0.03,1.08-0.29,2.16-0.29,3.25c-0.04,10.29-0.08,20.59-0.06,30.88
		C288.26,228.36,288.46,230.91,288.59,233.82z"/>
	<path d="M532.46,218.29c-1.37,0.41-2.29,0.92-3.22,0.92c-20.4,0.07-40.8,0.1-61.2,0.09c-0.85,0-1.7-0.45-2.85-0.78
		C467.39,216.72,529.54,216.5,532.46,218.29z"/>
	<path d="M500.83,276.86c0.92-0.26,1.85-0.74,2.77-0.74c15.51-0.03,31.03-0.03,46.54,0.06c0.88,0,1.75,0.81,2.63,1.24
		c-0.92,0.35-1.84,1-2.76,1.01c-15.21,0.05-30.43,0.03-45.64-0.01c-1.13,0-2.26-0.24-3.39-0.37
		C500.93,277.65,500.88,277.25,500.83,276.86z"/>
	<path d="M374.54,364.08c-17.02,0-34.04,0-51.07,0c-0.07-0.33-0.15-0.65-0.22-0.98c0.98-0.33,1.95-0.94,2.93-0.95
		c15.21-0.07,30.43-0.08,45.64-0.03c0.97,0,1.93,0.55,2.89,0.84C374.66,363.33,374.6,363.71,374.54,364.08z"/>
	<path d="M307.53,334.1c0.97-0.31,1.94-0.89,2.91-0.89c14.08-0.05,28.16-0.05,42.24,0.03c0.8,0,1.59,0.73,2.38,1.12
		c-0.69,0.39-1.37,1.11-2.06,1.11c-14.58,0.05-29.16,0.02-43.74-0.01c-0.46,0-0.92-0.23-1.38-0.36
		C307.77,334.77,307.65,334.44,307.53,334.1z"/>
	<path d="M286.53,245.93c-1.03,0.33-2.06,0.95-3.09,0.96c-12.29,0.11-24.57,0.16-36.86,0.14c-0.72,0-1.44-0.64-2.17-0.98
		c0.63-0.47,1.25-1.33,1.89-1.34c12.89-0.12,25.77-0.14,38.66-0.16c0.45,0,0.89,0.27,1.34,0.42
		C286.38,245.28,286.46,245.6,286.53,245.93z"/>
	<path d="M522.35,402.64c2.47-2.15,35.96-2.44,39.24-0.46c-1.34,0.44-2.25,1-3.17,1.01c-11.01,0.07-22.01,0.07-33.02,0.05
		C524.57,403.23,523.73,402.92,522.35,402.64z"/>
	<path d="M593.13,354.32c-8.21,0-15.9,0-23.63,0C570.67,351.85,590.14,351.5,593.13,354.32z"/>
	<path d="M368.21,334.12c0.82-0.31,1.63-0.87,2.46-0.89c4.8-0.09,9.6-0.1,14.39,0c0.69,0.01,1.37,0.75,2.06,1.15
		c-0.69,0.37-1.38,1.04-2.08,1.05c-4.9,0.1-9.79,0.08-14.69,0.03c-0.69-0.01-1.38-0.34-2.07-0.52
		C368.26,334.67,368.23,334.4,368.21,334.12z"/>
	<path d="M350.15,379.27c0.71-0.19,1.41-0.53,2.12-0.53c5-0.05,9.99-0.07,14.99,0.02c0.58,0.01,1.15,0.73,1.72,1.11
		c-0.6,0.39-1.19,1.11-1.79,1.12c-4.99,0.09-9.99,0.09-14.99,0c-0.73-0.01-1.44-0.62-2.17-0.95
		C350.07,379.78,350.11,379.53,350.15,379.27z"/>
	<path d="M309.93,244.8c7.22-0.49,13.69-0.12,20.69-0.19C328.57,247.5,312.91,247.65,309.93,244.8z"/>
	<path d="M450.48,244.48c2.09,0,4.18-0.07,6.26,0.05c0.55,0.03,1.08,0.64,1.61,0.99c-0.5,0.49-1,1.38-1.52,1.39
		c-4.27,0.12-8.55,0.14-12.82,0.04c-0.56-0.01-1.1-0.84-1.65-1.3c0.62-0.37,1.21-1.03,1.85-1.07c2.08-0.14,4.17-0.05,6.26-0.05
		C450.48,244.51,450.48,244.49,450.48,244.48z"/>
	<path d="M308.45,254.27c1.89,0,3.79-0.1,5.67,0.05c0.73,0.06,1.41,0.66,2.11,1.01c-0.74,0.45-1.48,1.25-2.24,1.28
		c-3.78,0.13-7.56,0.11-11.34-0.02c-0.77-0.03-1.51-0.77-2.27-1.18c0.8-0.37,1.57-1,2.4-1.07c1.88-0.16,3.78-0.05,5.67-0.05
		C308.45,254.28,308.45,254.28,308.45,254.27z"/>
	<path d="M373.82,440.75c-0.89,0.38-1.6,0.93-2.33,0.95c-3.38,0.1-6.77,0.1-10.15,0.01c-0.49-0.01-0.96-0.69-1.44-1.06
		c0.38-0.39,0.76-1.11,1.13-1.11c3.96-0.01,7.93,0.1,11.89,0.21C373.11,439.75,373.29,440.15,373.82,440.75z"/>
	<path d="M473.52,245.46c-0.57,0.44-1.11,1.21-1.71,1.26c-2.68,0.2-5.39,0.27-8.08,0.21c-0.51-0.01-1-0.79-1.51-1.21
		c0.38-0.4,0.75-1.13,1.14-1.14c3.31-0.09,6.63-0.05,9.94-0.05C473.39,244.84,473.46,245.15,473.52,245.46z"/>
	<path d="M383.31,439.34c1.2,0,2.41-0.09,3.59,0.04c0.47,0.05,0.9,0.59,1.34,0.9c-0.44,0.46-0.86,1.29-1.32,1.32
		c-2.59,0.12-5.19,0.1-7.79,0c-0.41-0.02-0.79-0.7-1.19-1.08c0.39-0.38,0.75-1.03,1.17-1.08c1.38-0.14,2.79-0.05,4.19-0.05
		C383.31,439.38,383.31,439.36,383.31,439.34z"/>
	<path d="M327.69,276.57c1.91-0.16,3.83-0.48,5.74-0.41c1.44,0.06,2.85,0.62,4.27,0.96c-1.46,0.43-2.9,1.1-4.38,1.23
		c-1.84,0.15-3.72-0.14-5.58-0.25C327.72,277.59,327.71,277.08,327.69,276.57z"/>
	<path d="M503.66,197.28c1.19-0.99,7.78-1.72,8.9-0.93c0.28,0.19,0.62,0.68,0.55,0.91c-0.13,0.4-0.54,1.01-0.85,1.02
		c-2.86,0.08-5.73,0.05-8.59,0.05C503.66,197.97,503.66,197.62,503.66,197.28z"/>
	<path d="M306.77,175.66c-1.75,2.19-4.12,1.73-6.44,1.23c-0.36-0.08-0.93-0.78-0.85-1c0.22-0.61,0.69-1.55,1.12-1.58
		c2.03-0.13,4.08,0,6.12,0.03C306.74,174.78,306.76,175.22,306.77,175.66z"/>
	<path d="M576.94,325.78c1.2-2,6.33-2.74,7.48-1.97c0.29,0.19,0.66,0.68,0.59,0.91c-0.12,0.4-0.54,1-0.85,1.01
		C581.75,325.82,579.34,325.78,576.94,325.78z"/>
	<path d="M292.47,177.73c-1.33-0.78-2.35-1.38-3.36-1.97c1.24-0.46,2.46-1.18,3.73-1.28c0.78-0.06,1.63,0.83,2.45,1.3
		C294.4,176.38,293.52,176.99,292.47,177.73z"/>
	<path d="M270.2,334.27c2.39-1.72,4.6-1.25,7.06-0.36C275.46,335.96,272.77,336.1,270.2,334.27z"/>
	<path d="M460.39,129.26c2.12-2.08,4.39-1.8,7.58-0.66C465.04,130.95,462.73,130.21,460.39,129.26z"/>
	<path d="M327.81,410.87c-2.59,2.63-5.29,2.56-7.3,0C322.96,410.87,325.02,410.87,327.81,410.87z"/>
	<path d="M535.59,157.62c-1.05,0.9-1.75,1.95-2.42,1.93c-0.65-0.02-1.26-1.14-1.89-1.78c0.66-0.63,1.23-1.56,2-1.77
		C533.76,155.88,534.53,156.85,535.59,157.62z"/>
	<path d="M472.6,128.47c1.24-0.2,2.48-0.46,3.73-0.53c0.18-0.01,0.41,0.88,0.61,1.36c-1.32,0.29-2.64,0.58-3.96,0.87
		C472.85,129.6,472.72,129.03,472.6,128.47z"/>
	<path d="M585.85,338.17c-1.16,0.78-1.84,1.61-2.44,1.55c-0.61-0.06-1.13-0.99-1.69-1.55c0.58-0.55,1.11-1.45,1.75-1.53
		C584.04,336.57,584.73,337.4,585.85,338.17z"/>
	<path d="M421.15,295.25c-3.11-0.02-5.61-2.6-5.58-5.77c0.02-3.07,2.49-5.59,5.45-5.56c3.12,0.03,5.96,2.93,5.85,5.99
		C426.76,292.88,424.2,295.27,421.15,295.25z"/>
</g>
</svg>
